<?xml version="1.0" encoding="utf-8"?>
<!-- Generator: Adobe Illustrator 18.0.0, SVG Export Plug-In . SVG Version: 6.00 Build 0)  -->
<!DOCTYPE svg PUBLIC "-//W3C//DTD SVG 1.1//EN" "http://www.w3.org/Graphics/SVG/1.1/DTD/svg11.dtd">
<svg x="0px" y="0px"
	 viewBox="0 0 130 130" enable-background="new 0 0 130 130" xml:space="preserve">
<g id="design">
	<g>
		<path fill="#FFFFFF" d="M65,0C29.1,0,0,29.1,0,65c0,35.9,29.1,65,65,65s65-29.1,65-65C130,29.1,100.9,0,65,0z M100.9,33.2
			l-34.5,69.3c-0.6,1.1-1.7,1.8-2.9,1.8c-0.5,0-1-0.1-1.4-0.3c-1.6-0.8-2.3-2.8-1.5-4.4l30.4-61l-54.6,25L53,72.2
			c1.6,0.8,2.2,2.8,1.4,4.4c-0.8,1.6-2.8,2.2-4.4,1.4L27.4,66.3c-1.1-0.6-1.8-1.7-1.8-3c0-1.2,0.8-2.4,1.9-2.9l69-31.6
			c1.2-0.6,2.7-0.3,3.7,0.7C101.2,30.5,101.5,32,100.9,33.2z"/>
	</g>
</g>
</svg>
