<?xml version="1.0" encoding="utf-8"?>
<!-- Generator: Adobe Illustrator 18.0.0, SVG Export Plug-In . SVG Version: 6.00 Build 0)  -->
<!DOCTYPE svg PUBLIC "-//W3C//DTD SVG 1.1//EN" "http://www.w3.org/Graphics/SVG/1.1/DTD/svg11.dtd">
<svg version="1.1" id="Layer_1" xmlns="http://www.w3.org/2000/svg" xmlns:xlink="http://www.w3.org/1999/xlink" x="0px" y="0px"
	 viewBox="0 0 1500 1000" enable-background="new 0 0 1500 1000" xml:space="preserve">
<filter  height="130%" xmlns="http://www.w3.org/2000/svg" id="dropshadow">
	<feGaussianBlur  in="SourceAlpha" stdDeviation="3"></feGaussianBlur>
	<feOffset  dy="2" dx="2" result="offsetblur"></feOffset>
	<feComponentTransfer>
		<feFuncA  type="linear" slope="0.2"></feFuncA>
	</feComponentTransfer>
	<feMerge>
		<feMergeNode></feMergeNode>
		<feMergeNode  in="SourceGraphic"></feMergeNode>
	</feMerge>
</filter>
<g filter="url(#dropshadow)">
	<path fill="none" stroke="#FFFFFF" stroke-width="2" stroke-linecap="round" stroke-linejoin="round" stroke-miterlimit="10" d="
		M1022.9,20.8H477.1c0,0-195.8,135.4-195.8,162.5v727.1c0,39.6,31.2,68.8,66.7,68.8H1150c37.5,0,66.7-29.2,66.7-66.7V183.3
		C1218.8,156.2,1022.9,20.8,1022.9,20.8z"/>
	<path fill="none" stroke="#FFFFFF" stroke-width="2" stroke-linecap="round" stroke-linejoin="round" stroke-miterlimit="10" d="
		M750,154.2"/>
	<path fill="none" stroke="#FFFFFF" stroke-width="2" stroke-linecap="round" stroke-linejoin="round" stroke-miterlimit="10" d="
		M527.1,20.8c0,2.1,0,4.2,0,8.3c0,77.1,100,187.5,222.9,187.5S972.9,106.2,972.9,29.2c0-2.1,0-4.2,0-8.3"/>

		<line fill="none" stroke="#FFFFFF" stroke-width="2" stroke-linecap="round" stroke-linejoin="round" stroke-miterlimit="10" x1="281.2" y1="425" x2="1218.8" y2="425"/>

		<line fill="none" stroke="#FFFFFF" stroke-width="2" stroke-linecap="round" stroke-linejoin="round" stroke-miterlimit="10" x1="281.2" y1="616.7" x2="1218.8" y2="616.7"/>

		<line fill="none" stroke="#FFFFFF" stroke-width="2" stroke-linecap="round" stroke-linejoin="round" stroke-miterlimit="10" x1="281.2" y1="808.3" x2="1218.8" y2="808.3"/>
</g>
</svg>
