<?xml version="1.0" encoding="utf-8"?>
<!-- Generator: Adobe Illustrator 18.0.0, SVG Export Plug-In . SVG Version: 6.00 Build 0)  -->
<!DOCTYPE svg PUBLIC "-//W3C//DTD SVG 1.1//EN" "http://www.w3.org/Graphics/SVG/1.1/DTD/svg11.dtd">
<svg  x="0px" y="0px"
	 viewBox="0 0 47 48" enable-background="new 0 0 47 48" xml:space="preserve">
<g id="design">
		<path fill="none" stroke="#FFFFFF" stroke-width="2" stroke-linecap="round" stroke-linejoin="round" stroke-miterlimit="10" d="
			M36.6,1H10.4C10.4,1,1,7.5,1,8.8v34.9C1,45.6,2.5,47,4.2,47h38.5c1.8,0,3.2-1.4,3.2-3.2V8.8C46,7.5,36.6,1,36.6,1z"/>
		<path fill="none" stroke="#FFFFFF" stroke-width="2" stroke-linecap="round" stroke-linejoin="round" stroke-miterlimit="10" d="
			M23.5,7.4"/>
		<path fill="none" stroke="#FFFFFF" stroke-width="2" stroke-linecap="round" stroke-linejoin="round" stroke-miterlimit="10" d="
			M12.8,1c0,0.1,0,0.2,0,0.4c0,3.7,4.8,9,10.7,9s10.7-5.3,10.7-9c0-0.1,0-0.2,0-0.4"/>
		<line fill="none" stroke="#FFFFFF" stroke-width="2" stroke-linecap="round" stroke-linejoin="round" stroke-miterlimit="10" x1="1" y1="20.4" x2="46" y2="20.4"/>
		<line fill="none" stroke="#FFFFFF" stroke-width="2" stroke-linecap="round" stroke-linejoin="round" stroke-miterlimit="10" x1="1" y1="29.6" x2="46" y2="29.6"/>
		<line fill="none" stroke="#FFFFFF" stroke-width="2" stroke-linecap="round" stroke-linejoin="round" stroke-miterlimit="10" x1="1" y1="38.8" x2="46" y2="38.8"/>
</g>
</svg>
