<?xml version="1.0" encoding="utf-8"?>
<!-- Generator: Adobe Illustrator 18.0.0, SVG Export Plug-In . SVG Version: 6.00 Build 0)  -->
<!DOCTYPE svg PUBLIC "-//W3C//DTD SVG 1.1//EN" "http://www.w3.org/Graphics/SVG/1.1/DTD/svg11.dtd">
<svg x="0px" y="0px"
	 viewBox="0 0 47 52" enable-background="new 0 0 47 52" xml:space="preserve">
<g id="design">
		<path fill="none" stroke="#FFFFFF" stroke-width="2" stroke-linecap="round" stroke-linejoin="round" stroke-miterlimit="10" d="
			M1,12.1c0,0,7,21.8,20,38.8"/>
		<path fill="none" stroke="#FFFFFF" stroke-width="2" stroke-linecap="round" stroke-linejoin="round" stroke-miterlimit="10" d="
			M45.5,12.2c0,0-7,21.8-20,38.8"/>
		<ellipse fill="none" stroke="#FFFFFF" stroke-width="2" stroke-linecap="round" stroke-linejoin="round" stroke-miterlimit="10" cx="23.5" cy="21.2" rx="3.1" ry="3.1"/>
		<path fill="none" stroke="#FFFFFF" stroke-width="2" stroke-linecap="round" stroke-linejoin="round" stroke-miterlimit="10" d="
			M44,9.9L44,9.9L44,9.9C44,9.9,44,9.9,44,9.9l-6.3-2.4L34.6,1H12.4L9.3,7.4L3,9.9c0,0,0,0,0,0l0,0l0,0c-1.2,0.5-2,1.6-2,3v34.9
			C1,49.5,2.5,51,4.2,51h38.5c1.8,0,3.2-1.4,3.2-3.2V12.8C46,11.5,45.2,10.4,44,9.9z"/>
		<line fill="none" stroke="#FFFFFF" stroke-width="2" stroke-linecap="round" stroke-linejoin="round" stroke-miterlimit="10" x1="12.4" y1="1" x2="23.5" y2="16.6"/>
		<line fill="none" stroke="#FFFFFF" stroke-width="2" stroke-linecap="round" stroke-linejoin="round" stroke-miterlimit="10" x1="34.6" y1="1" x2="23.5" y2="16.6"/>
		<line fill="none" stroke="#FFFFFF" stroke-width="2" stroke-linecap="round" stroke-linejoin="round" stroke-miterlimit="10" x1="17.7" y1="7.9" x2="29.4" y2="7.9"/>
		<path fill="none" stroke="#FFFFFF" stroke-width="2" stroke-linecap="round" stroke-linejoin="round" stroke-miterlimit="10" d="
			M9.3,7.4"/>
		<line fill="none" stroke="#FFFFFF" stroke-width="2" stroke-linecap="round" stroke-linejoin="round" stroke-miterlimit="10" x1="12.3" y1="16.9" x2="9.3" y2="7.4"/>
		<line fill="none" stroke="#FFFFFF" stroke-width="2" stroke-linecap="round" stroke-linejoin="round" stroke-miterlimit="10" x1="23.5" y1="51" x2="15" y2="26.7"/>
		<path fill="none" stroke="#FFFFFF" stroke-width="2" stroke-linecap="round" stroke-linejoin="round" stroke-miterlimit="10" d="
			M20.4,21.2L20.4,21.2c0-0.8,0.3-1.6,0.9-2.2c-0.8-0.8-2.1-1.9-3.9-2.6c-3.5-1.4-5.7-1.4-5.9,3.9h0v0.8v0.1v0.8h0
			c0.2,5.2,2.3,5.2,5.9,3.9c1.8-0.7,3.1-1.8,3.9-2.6C20.7,22.8,20.4,22,20.4,21.2z"/>
		<line fill="none" stroke="#FFFFFF" stroke-width="2" stroke-linecap="round" stroke-linejoin="round" stroke-miterlimit="10" x1="34.7" y1="16.9" x2="37.7" y2="7.4"/>
		<line fill="none" stroke="#FFFFFF" stroke-width="2" stroke-linecap="round" stroke-linejoin="round" stroke-miterlimit="10" x1="23.5" y1="51" x2="32" y2="26.7"/>
		<path fill="none" stroke="#FFFFFF" stroke-width="2" stroke-linecap="round" stroke-linejoin="round" stroke-miterlimit="10" d="
			M35.5,20.3c-0.2-5.2-2.3-5.2-5.9-3.9c-1.8,0.7-3.1,1.8-3.9,2.6c0.6,0.6,0.9,1.3,0.9,2.2l0,0c0,0.9-0.3,1.6-0.9,2.2
			c0.8,0.8,2.1,1.9,3.9,2.6c3.5,1.4,5.7,1.3,5.9-3.9h0v-0.8v-0.1L35.5,20.3L35.5,20.3z"/>
</g>
</svg>
