<?xml version="1.0" encoding="utf-8"?>
<!-- Generator: Adobe Illustrator 18.0.0, SVG Export Plug-In . SVG Version: 6.00 Build 0)  -->
<!DOCTYPE svg PUBLIC "-//W3C//DTD SVG 1.1//EN" "http://www.w3.org/Graphics/SVG/1.1/DTD/svg11.dtd">
<svg x="0px" y="0px"
	 viewBox="0 0 47 52" enable-background="new 0 0 47 52" xml:space="preserve">
<g id="design">
		<path fill="none" stroke="#FFFFFF" stroke-width="2" stroke-linecap="round" stroke-linejoin="round" stroke-miterlimit="10" d="
			M44,9.9L44,9.9L44,9.9C44,9.9,44,9.9,44,9.9l-6.3-2.4L34.6,1H12.4L9.3,7.4L3,9.9c0,0,0,0,0,0l0,0l0,0c-1.2,0.5-2,1.6-2,3v34.9
			C1,49.6,2.5,51,4.2,51h38.5c1.8,0,3.2-1.4,3.2-3.2V12.8C46,11.5,45.2,10.4,44,9.9z"/>
		<polyline fill="none" stroke="#FFFFFF" stroke-width="2" stroke-linecap="round" stroke-linejoin="round" stroke-miterlimit="10" points="
				12.4,1 23.5,17.1 13.8,25.5 9.3,7.4 			"/>
		<polyline fill="none" stroke="#FFFFFF" stroke-width="2" stroke-linecap="round" stroke-linejoin="round" stroke-miterlimit="10" points="
				34.6,1 23.5,17.1 33.2,25.5 37.7,7.4 			"/>
		<line fill="none" stroke="#FFFFFF" stroke-width="2" stroke-linecap="round" stroke-linejoin="round" stroke-miterlimit="10" x1="17.2" y1="7.9" x2="29.8" y2="7.9"/>
		<ellipse fill="#FFFFFF" stroke="#FFFFFF" stroke-width="2" stroke-linecap="round" stroke-linejoin="round" stroke-miterlimit="10" cx="23.5" cy="29.7" rx="1.8" ry="1.8"/>
		<path fill="#FFFFFF" stroke="#FFFFFF" stroke-width="2" stroke-linecap="round" stroke-linejoin="round" stroke-miterlimit="10" d="
			M25.3,39.1c0,1-0.8,1.8-1.8,1.8c-1,0-1.8-0.8-1.8-1.8c0-1,0.8-1.8,1.8-1.8C24.5,37.3,25.3,38.1,25.3,39.1z"/>
</g>
</svg>
